/* XPM */
static char *_56f70e33e1942decdfa75b69948eab6pVFjqAJVtdoIDEhv[] = {
/* columns rows colors chars-per-pixel */
"64 64 7 1 ",
"  c None",
". c #640F0F",
"X c #716F6F",
"o c #903F13",
"O c #C7571A",
"+ c #A5A4A4",
"@ c white",
/* pixels */
"                                                                ",
"                                                                ",
"                                                                ",
"                                                                ",
"                                                                ",
"               XXXX                                             ",
"               XXXX                                             ",
"                XXX                                             ",
"                  X                                             ",
"                 XX                                             ",
"              XXX                                               ",
"           XXX                                                  ",
"          X                                                     ",
"          X                                                     ",
"          X                                                     ",
"          X                                                     ",
"          X                                                     ",
"           XXX                                                  ",
"             XXXX                                               ",
"                X                                               ",
"                X                                               ",
"               X                                                ",
"              X                                                 ",
"            XX                                                  ",
"           XX                                                   ",
"           X                                                    ",
"           XX                                                   ",
"            XX.@@@@@@@@@@@@@@@@@@@@@@@@@@@@@@@OOOOOOOOO         ",
"             X.@@@@@@@@@@@@@@@@@@@@@@@@@@@@@@@OOOOOOOOO         ",
"              .@@@@@@@@@@@@@@@@@@@@@@@@@@@@@@@OOOOOOOOO         ",
"              .@@@@@@@@@@@@@@@@@@@@@@@@@@@@@@@OOOOOOOOO         ",
"              .+++++++++++++++++++++++++++++++ooooooooo         ",
"                                                                ",
"                                                                ",
"                                                                ",
"                                                                ",
"                                                                ",
"                                                                ",
"                                                                ",
"                                                                ",
"                                                                ",
"                                                                ",
"                                                                ",
"                                                                ",
"                                                                ",
"                                                                ",
"                                                                ",
"                                                                ",
"                                                                ",
"                                                                ",
"                                                                ",
"                                                                ",
"                                                                ",
"                                                                ",
"                                                                ",
"                                                                ",
"                                                                ",
"                                                                ",
"                                                                ",
"                                                                ",
"                                                                ",
"                                                                ",
"                                                                ",
"                                                                "
};
