/* XPM */
static char *_68e7e45a5ff4ed09af55dfab67b9a2dy7GPH5EB1eYLL0At[] = {
/* columns rows colors chars-per-pixel */
"64 64 7 1 ",
"  c None",
". c #494746",
"X c #565452",
"o c #903F13",
"O c #C7571A",
"+ c #A5A4A4",
"@ c white",
/* pixels */
"                                                                ",
"                                                                ",
"                                                                ",
"                                                                ",
"                                                                ",
"                                                                ",
"                                                                ",
"                                                                ",
"                                                                ",
"                                                                ",
"                                                                ",
"                                                                ",
"                                                                ",
"                                                                ",
"                                                                ",
"                                                                ",
"                                                                ",
"                                                                ",
"                                                                ",
"                                                                ",
"                                                                ",
"                                                                ",
"                                                                ",
"                                                                ",
"                                                                ",
"                                                                ",
"                                                                ",
"              X@@@@@@@@@@@@@@@@@@@@@@@@@@@@@@@OOOOOOOOO         ",
"              X@@@@@@@@@@@@@@@@@@@@@@@@@@@@@@@OOOOOOOOO         ",
"              X@@@@@@@@@@@@@@@@@@@@@@@@@@@@@@@OOOOOOOOO         ",
"              X@@@@@@@@@@@@@@@@@@@@@@@@@@@@@@@OOOOOOOOO         ",
"              .+++++++++++++++++++++++++++++++ooooooooo         ",
"                                                                ",
"                                                                ",
"                                                                ",
"                                                                ",
"                                                                ",
"                                                                ",
"                                                                ",
"                                                                ",
"                                                                ",
"                                                                ",
"                                                                ",
"                                                                ",
"                                                                ",
"                                                                ",
"                                                                ",
"                                                                ",
"                                                                ",
"                                                                ",
"                                                                ",
"                                                                ",
"                                                                ",
"                                                                ",
"                                                                ",
"                                                                ",
"                                                                ",
"                                                                ",
"                                                                ",
"                                                                ",
"                                                                ",
"                                                                ",
"                                                                ",
"                                                                "
};
