/* XPM */
static char *_1cff33530aa42ce8f02a9cc46237821dfME0TpAO2jPHZjI[] = {
/* columns rows colors chars-per-pixel */
"64 64 4 1 ",
"  c None",
". c black",
"X c #726E6E",
"o c #D2D2D2",
/* pixels */
"                                                                ",
"                                                                ",
"                         XXXXXXXX                               ",
"                       XXXXXXXXXXXXXX                           ",
"                    XXXXXXX    XXXXXXXX                         ",
"                   XXXXX          XX...XX                       ",
"                  XXXX             ....XXX                      ",
"                ...XX            .....  XXX                     ",
"                ....            .....    XXXX                   ",
"               XX.....         ....       XXX                   ",
"               XX  ....       ....         XXX                  ",
"              XXX   ....     ....          XXX                  ",
"              XX     ....   ....            XXX                 ",
"             XX    ......XXX.......         XXX                 ",
"             XX    .ooo..XXXX.ooo..          XXX                ",
"             XX    ...o..    ...o..          XXX                ",
"             XX    ...o..    ...o..           XX                ",
"             XX     .....     .....           XXX               ",
"             XX      XX   XXXX   XXX          XXXX              ",
"             XX      XX   XX XX   XXX          XXX              ",
"             XXX     XXX  XX XX   XXXX         XXX              ",
"             XXXX    XXX     XX    XXX         XXX              ",
"              XXX     XXX    XX    XXX         XXX              ",
"              XXX      XXXXXXXX   XXX          XXX              ",
"               XXX      XXXXX     XX           XXX              ",
"               XXX                XX           XXX              ",
"                XXXX             XXX           XX               ",
"                 XXXX            XX           XXX               ",
"                   XXX         XXXX           XX                ",
"                    XXXXXX  XXXXXX           XXX                ",
"                     XXXXXXXXXXX            XXX                 ",
"                       XXXXXXXX             XX                  ",
"                                          XXXX                  ",
"                                         XXXX                   ",
"                                        XXXX                    ",
"                                       XXXX                     ",
"                                      XXXX                      ",
"                                     XXXX                       ",
"                                    XXXX                        ",
"                                  XXXX                          ",
"                                 XXXX                           ",
"                                XXXX                            ",
"                               XXX                              ",
"                              XXX                               ",
"                            XXXXX                               ",
"                           XXXX                                 ",
"                          XXXX                                  ",
"                          XXX                                   ",
"                         XXX                                    ",
"                        XXX                                     ",
"                        XXX         X                           ",
"                       XXX         XX                           ",
"                       XXX       XXX                            ",
"                       XXX      XXX                             ",
"                       XXX      XXX                             ",
"                        XX      XXX                             ",
"                        XX      XX                              ",
"                        XXX    XXX                              ",
"                         XXX   XXX                              ",
"                         XXXXXXXXX                              ",
"                          XXXXXXX                               ",
"                            XXXX                                ",
"                                                                ",
"                                                                "
};
