/* XPM */
static char *b395ded0f7cd4eb884f6516be520860atR44OvvkBROb9Fc6[] = {
/* columns rows colors chars-per-pixel */
"64 64 3 1 ",
"  c None",
". c black",
"X c #232323",
/* pixels */
"                                                                ",
"                                                                ",
"                                                                ",
"                                                                ",
"                                                                ",
"                                                                ",
"                                                                ",
"                                                                ",
"                                                                ",
"                                                                ",
"                                                                ",
"                                                                ",
"                                                                ",
"                                                                ",
"                                                                ",
"                                                                ",
"                                                                ",
"                                                                ",
"                                                                ",
"                                                                ",
"                                                                ",
"                                                                ",
"                            ......                              ",
"                           ........                             ",
"                           ..    ..                             ",
"                           ..    ..                             ",
"            ......................................              ",
"          ..               ..    ..               ..            ",
"           .                                      .             ",
"           ........................................             ",
"             ....................................               ",
"               .   X    X      X     X    X   .                 ",
"               .   X    X      X     X    X   .                 ",
"               .   X    X      X     X    X   .                 ",
"               .   X    X      X     X    X   .                 ",
"               .   X    X      X     X    X   .                 ",
"               .   X    X      X     X    X   .                 ",
"               .   X    X      X     X    X   .                 ",
"               .   X    X      X     X    X   .                 ",
"               .   X    X      X     X    X   .                 ",
"               .   X    X      X     X    X   .                 ",
"               .   X    X      X     X    X   .                 ",
"               .   X    X      X     X    X   .                 ",
"               .   X    X      X     X    X   .                 ",
"               .   X    X      X     X    X   .                 ",
"               .   X    X      X     X    X   .                 ",
"               .   X    X      X     X    X   .                 ",
"               .   X    X      X     X    X   .                 ",
"               .   X    X      X     X    X   .                 ",
"               .   X    X      X     X    X   .                 ",
"               .   X    X      X     X    X   .                 ",
"               .   X    X      X     X    X   .                 ",
"               .   X    X      X     X    X   .                 ",
"               .   X    X      X     X    X   .                 ",
"               .   X    X      X     X    X   .                 ",
"               .   X    X      X     X    X   .                 ",
"               .   X    X      X     X    X   .                 ",
"               .   X    X      X     X    X   .                 ",
"               .   X    X      X     X    X   .                 ",
"               ..  X    X      X     X    X  ..                 ",
"                .  X    X      X     X    X  .                  ",
"                 ...    X      X     X    ...                   ",
"                 ............................                   ",
"                    ......................                      "
};
