/* XPM */
static char *b1400233a76f49b8a99fac72441d16185JXL7ffdCRMySfSo[] = {
/* columns rows colors chars-per-pixel */
"64 64 5 1 ",
"  c None",
". c black",
"X c #5B2611",
"o c #235573",
"O c #B58400",
/* pixels */
"                                                                ",
"                                                                ",
"                                                                ",
"   ..........................................................   ",
"   .OOOOOOOOOOOOOOOOOOOOOOOOOOOOOOOOOOOOOOOOOOOOOOOOOOOOOOOO.   ",
"   .OOOO.                                              .OOOO.   ",
"   .OOOO.                                              .OOOO.   ",
"   .OOOOOOOOOOOOOOOOOOOOOOOOOOOOOOOOOOOOOOOOOOOOOOOOOOOOOOOO.   ",
"   .O..O................................................O..O.   ",
"   .O  O..                                            ..O  O.   ",
"   .O  O. ............................................ .O  O.   ",
"   .O  O. .XXXXXXXXXXXXXXXXXXXXXXXXXXXXXXXXXXXXXXXXXX. .O  O.   ",
"   .O  O. .XXX.                                  .XXX. .O  O.   ",
"   .O  O. .XXXXXXXXXXXXXXXXXXXXXXXXXXXXXXXXXXXXXXXXXX. .O  O.   ",
"   .O  O. .X.X.                                  .X.X. .O  O.   ",
"   .O  O. .X X .                                . X X. .O  O.   ",
"   .O  O. .X X  ................................  X X. .O  O.   ",
"   .O  O. .X X  .oooooooooooooooooooooooooooooo.  X X. .O  O.   ",
"   .O  O. .X X  .ooo.                      .ooo.  X X. .O  O.   ",
"   .O  O. .X X  .oooooooooooooooooooooooooooooo.  X X. .O  O.   ",
"   .O  O. .X X  .o.o.                      .o.o.  X X. .O  O.   ",
"   .O  O. .X X  .o o                        o o.  X X. .O  O.   ",
"   .O  O. .X X  .o o                        o o.  X X. .O  O.   ",
"   .O  O. .X X  .o o                        o o.  X X. .O  O.   ",
"   .O  O. .X X  .o o        .......         o o.  X X. .O  O.   ",
"   .O  O. .X X  .o o      ..       ..       o o.  X X. .O  O.   ",
"   .O  O. .X X  .o o      .   ....   ..     o o.  X X. .O  O.   ",
"   .O  O. .X X  .o o     .  ...   ..  .     o o.  X X. .O  O.   ",
"   .O  O. .X X  .o o    .. ..       .  .    o o.  X X. .O  O.   ",
"   .O  O. .X X  .o o    .  .  .....  ..     o o.  X X. .O  O.   ",
"   .O  O. .X X  .o o    . .. ..   ..  .     o o.  X X. .O  O.   ",
"   .O  O. .X X  .o o    . .  . ... .  .     o o.  X X. .O  O.   ",
"   .O  O. .X X  .o o    . .  . . . .  .     o o.  X X. .O  O.   ",
"   .O  O. .X X  .o o    . .  .. .. .  .     o o.  X X. .O  O.   ",
"   .O  O. .X X  .o o    .  .  ...  .  .     o o.  X X. .O  O.   ",
"   .O  O. .X X  .o o    .  ..     .   .     o o.  X X. .O  O.   ",
"   .O  O. .X X  .o o    ..  ......   ..     o o.  X X. .O  O.   ",
"   .O  O. .X X  .o o     ..         ..      o o.  X X. .O  O.   ",
"   .O  O. .X X  .o o      ..       ..       o o.  X X. .O  O.   ",
"   .O  O. .X X  .o o       .........        o o.  X X. .O  O.   ",
"   .O  O. .X X  .o o                        o o.  X X. .O  O.   ",
"   .O  O. .X X  .o o                        o o.  X X. .O  O.   ",
"   .O  O. .X X  .o o                        o o.  X X. .O  O.   ",
"   .O  O. .X X  .o.o.                      .o.o.  X X. .O  O.   ",
"   .O  O. .X X  .oooooooooooooooooooooooooooooo.  X X. .O  O.   ",
"   .O  O. .X X  .ooo.                      .ooo.  X X. .O  O.   ",
"   .O  O. .X X  .oooooooooooooooooooooooooooooo.  X X. .O  O.   ",
"   .O  O. .X X  ................................  X X. .O  O.   ",
"   .O  O. .X X .                                . X X. .O  O.   ",
"   .O  O. .X.X.                                  .X.X. .O  O.   ",
"   .O  O. .XXXXXXXXXXXXXXXXXXXXXXXXXXXXXXXXXXXXXXXXXX. .O  O.   ",
"   .O  O. .XXX.                                  .XXX. .O  O.   ",
"   .O  O. .XXXXXXXXXXXXXXXXXXXXXXXXXXXXXXXXXXXXXXXXXX. .O  O.   ",
"   .O  O. ............................................ .O  O.   ",
"   .O  O..                                            ..O  O.   ",
"   .O..O................................................O..O.   ",
"   .OOOOOOOOOOOOOOOOOOOOOOOOOOOOOOOOOOOOOOOOOOOOOOOOOOOOOOOO.   ",
"   .OOOO.                                              .OOOO.   ",
"   .OOOO.                                              .OOOO.   ",
"   .OOOOOOOOOOOOOOOOOOOOOOOOOOOOOOOOOOOOOOOOOOOOOOOOOOOOOOOO.   ",
"   ..........................................................   ",
"                                                                ",
"                                                                ",
"                                                                "
};
