/* XPM */
static char *_f659a636ea141dc9afa7fba9dadce12NL3X9NZe1eoEQ5aC[] = {
/* columns rows colors chars-per-pixel */
"64 64 6 1 ",
"  c None",
". c #640F0F",
"X c #903F13",
"o c #C7571A",
"O c #A5A4A4",
"+ c white",
/* pixels */
"                                                                ",
"                                                                ",
"                                                                ",
"                                                                ",
"                                                                ",
"                                                                ",
"                                                                ",
"                                                                ",
"                                                                ",
"                                                                ",
"                                                                ",
"                                                                ",
"                                                                ",
"                                                                ",
"                                                                ",
"                                                                ",
"                                                                ",
"                                                                ",
"                                                                ",
"                                                                ",
"                                                                ",
"                                                                ",
"                                                                ",
"                                                                ",
"                                                                ",
"                                                                ",
"                                                                ",
"              .+++++++++++++++++++++++++++++++ooooooooo         ",
"              .+++++++++++++++++++++++++++++++ooooooooo         ",
"              .+++++++++++++++++++++++++++++++ooooooooo         ",
"              .+++++++++++++++++++++++++++++++ooooooooo         ",
"              .OOOOOOOOOOOOOOOOOOOOOOOOOOOOOOOXXXXXXXXX         ",
"                                                                ",
"                                                                ",
"                                                                ",
"                                                                ",
"                                                                ",
"                                                                ",
"                                                                ",
"                                                                ",
"                                                                ",
"                                                                ",
"                                                                ",
"                                                                ",
"                                                                ",
"                                                                ",
"                                                                ",
"                                                                ",
"                                                                ",
"                                                                ",
"                                                                ",
"                                                                ",
"                                                                ",
"                                                                ",
"                                                                ",
"                                                                ",
"                                                                ",
"                                                                ",
"                                                                ",
"                                                                ",
"                                                                ",
"                                                                ",
"                                                                ",
"                                                                "
};
