/* XPM */
static char *c1b67f8021bc4121c89716159e7f385ekUTZg762Jpou7MBl[] = {
/* columns rows colors chars-per-pixel */
"64 64 3 1 ",
"  c None",
". c black",
"X c #232323",
/* pixels */
"                                                                ",
"                                                                ",
"                                                                ",
"                                                                ",
"                                                                ",
"                                                                ",
"                                                                ",
"                                                                ",
"                                                                ",
"                                                                ",
"                                                                ",
"                                                                ",
"                                                                ",
"                                                                ",
"                                                                ",
"                                                                ",
"                ...                                             ",
"              ..   ...            ...                           ",
"            ..        ...         .....                         ",
"            .....        ....    ..  ...                        ",
"              ......         ......   ..                        ",
"                 .......        ...  ..                         ",
"                    .......       .....                         ",
"                        ......      .....                       ",
"                           ......        ....                   ",
"                              ......         ...                ",
"                                 ......         ...             ",
"                                    .......        .            ",
"                                       .......      .           ",
"                                           ......   .           ",
"               ......................................           ",
"               .   X    X      X     X    X   .  ..             ",
"               .   X    X      X     X    X   .                 ",
"               .   X    X      X     X    X   .                 ",
"               .   X    X      X     X    X   .                 ",
"               .   X    X      X     X    X   .                 ",
"               .   X    X      X     X    X   .                 ",
"               .   X    X      X     X    X   .                 ",
"               .   X    X      X     X    X   .                 ",
"               .   X    X      X     X    X   .                 ",
"               .   X    X      X     X    X   .                 ",
"               .   X    X      X     X    X   .                 ",
"               .   X    X      X     X    X   .                 ",
"               .   X    X      X     X    X   .                 ",
"               .   X    X      X     X    X   .                 ",
"               .   X    X      X     X    X   .                 ",
"               .   X    X      X     X    X   .                 ",
"               .   X    X      X     X    X   .                 ",
"               .   X    X      X     X    X   .                 ",
"               .   X    X      X     X    X   .                 ",
"               .   X    X      X     X    X   .                 ",
"               .   X    X      X     X    X   .                 ",
"               .   X    X      X     X    X   .                 ",
"               .   X    X      X     X    X   .                 ",
"               .   X    X      X     X    X   .                 ",
"               .   X    X      X     X    X   .                 ",
"               .   X    X      X     X    X   .                 ",
"               .   X    X      X     X    X   .                 ",
"               .   X    X      X     X    X   .                 ",
"               ..  X    X      X     X    X  ..                 ",
"                .  X    X      X     X    X  .                  ",
"                 ...    X      X     X    ...                   ",
"                 ............................                   ",
"                    ......................                      "
};
