/* XPM */
static char *_dee7b91cd7f495688fcf6c502cd98absxyDrZH708TDH2SU[] = {
/* columns rows colors chars-per-pixel */
"64 64 4 1 ",
"  c None",
". c black",
"X c #370B0B",
"o c #FF8D00",
/* pixels */
"               ........................                         ",
"             ..........................                         ",
"             ..........................                         ",
"             ..........................                         ",
"             ..........................                         ",
"             ..........             ...                         ",
"             .......                  .                         ",
"             .......                  .                         ",
"             ....... .........   ........                       ",
"             ....... .........   ........                       ",
"             .....   .........   ........                       ",
"             .....        XXXX        XXX                       ",
"             .....        XXXX        XXX                       ",
"             .....                    .                         ",
"             .....                    .                         ",
"             ...                      .                         ",
"             ...            ........  .                         ",
"             ...            ........  .                         ",
"               .......................                          ",
"               .......................                          ",
"                    .       ..                                  ",
"                    .       .. oo   oo     o                    ",
"                    .       .. oo   oo     o                    ",
"                    .    ...   oo oo..     o    o               ",
"                    .    ...   oo oo..     o    o               ",
"                    .  ..   ..   .    .    o  oo                ",
"                    ...   ..   .. oooo                          ",
"                    ...   ..   .. oooo                          ",
"                    .    .    .   ..          ooooo             ",
"                    .    .    .   ..          ooooo             ",
"                  ..      ........  ........                    ",
"                  ..             .          ..                  ",
"                  ..             .          ..                  ",
"                  ..        ......  ........                    ",
"                  ..          .        ..                       ",
"                  ..          .        ..                       ",
"                  ..      ....      ...                         ",
"                  ..      ....      ...                         ",
"                    .       ...       .                         ",
"                    .......... .......                          ",
"                    .......... .......                          ",
"                    .       ..                                  ",
"                    .       ..                                  ",
"                    .       ..                                  ",
"                    .       ..                                  ",
"                    .       ..                                  ",
"                    .    .  ..                                  ",
"                    .    .  ..                                  ",
"                    .    .  ..                                  ",
"                    .    .  ..                                  ",
"                    .    .  ..                                  ",
"                    .    .  ..                                  ",
"                    .    .  ..                                  ",
"                    .    .  ..                                  ",
"                    .    .  ..                                  ",
"                    .    .  ..                                  ",
"                    .    .  ..                                  ",
"                    .    .  ..                                  ",
"                    .    .  ..                                  ",
"                    .    .  ..                                  ",
"                    .    .  ..                                  ",
"                    ...........                                 ",
"                    ...........                                 ",
"                    ...........                                 "
};
